<?xml version="1.0" encoding="UTF-8" standalone="no"?>
<!-- Generator: Adobe Illustrator 12.0.0, SVG Export Plug-In . SVG Version: 6.00 Build 51448)  -->
<svg xmlns:dc="http://purl.org/dc/elements/1.1/" xmlns:cc="http://creativecommons.org/ns#" xmlns:rdf="http://www.w3.org/1999/02/22-rdf-syntax-ns#" xmlns:svg="http://www.w3.org/2000/svg" xmlns="http://www.w3.org/2000/svg" xmlns:sodipodi="http://sodipodi.sourceforge.net/DTD/sodipodi-0.dtd" xmlns:inkscape="http://www.inkscape.org/namespaces/inkscape" version="1.0" id="Layer_1" width="530" height="153.81" viewBox="0 0 280.22 69.387" overflow="visible" enable-background="new 0 0 280.22 69.387" xml:space="preserve" sodipodi:version="0.32" inkscape:version="0.46" sodipodi:docname="gstreamer-logo.svg" inkscape:output_extension="org.inkscape.output.svg.inkscape" style="overflow:visible"><metadata id="metadata30"><rdf:RDF><cc:Work rdf:about=""><dc:format>image/svg+xml</dc:format><dc:type rdf:resource="http://purl.org/dc/dcmitype/StillImage"/></cc:Work></rdf:RDF></metadata><defs id="defs28"><inkscape:perspective sodipodi:type="inkscape:persp3d" inkscape:vp_x="0 : 34.693501 : 1" inkscape:vp_y="0 : 1000 : 0" inkscape:vp_z="280.22 : 34.693501 : 1" inkscape:persp3d-origin="140.11 : 23.129 : 1" id="perspective32"/></defs><sodipodi:namedview inkscape:window-height="968" inkscape:window-width="1280" inkscape:pageshadow="2" inkscape:pageopacity="0.0" guidetolerance="10.0" gridtolerance="10.0" objecttolerance="10.0" borderopacity="1.0" bordercolor="#666666" pagecolor="#ffffff" id="base" showgrid="false" inkscape:zoom="1.050338" inkscape:cx="252.00652" inkscape:cy="34.693501" inkscape:window-x="-4" inkscape:window-y="26" inkscape:current-layer="Layer_1"/>











<g id="g2405" transform="matrix(0.9433986,0,0,0.9433986,7.9310317,1.9634144)"><path id="path3" d="M 199.551,58.684 C 199.217,51.85 202.187,35.937 209.021,37.437 C 211.934,38.077 211.139,42.092 210.187,46.437 C 208.905,52.287 206.687,58.674 206.687,58.674 C 206.687,58.674 215.021,59.007 214.854,58.674 C 215.687,48.174 217.893,36.746 224.021,37.603 C 229.102,38.313 222.58,58.674 222.58,58.674 C 222.58,58.674 228.85,58.674 230.167,58.674 C 229.895,55.221 231.757,47.179 232.802,41.363 C 233.847,35.547 231.621,33.003 226.942,32.958 C 222.263,32.913 217.628,37.002 217.628,37.002 C 217.81,33.504 213.199,32.952 213.199,32.952 C 208.269,32.639 203.544,35.957 203.544,35.957 L 203.982,33.387 L 196.557,33.387 C 196.557,33.387 196.192,37.475 194.69,44.936 C 193.188,52.397 191.18,58.674 191.18,58.674 L 199.551,58.684 z" style="fill:#8c8c8c"/><path id="path5" d="M 250.388,32.759 C 240.221,32.759 235.688,39.937 235.688,47.27 C 235.688,54.603 240.02,59.437 248.854,59.437 C 253.004,59.437 255.354,55.603 255.354,55.603 C 255.354,55.603 255.488,54.554 254.704,54.991 C 253.92,55.428 251.784,56.343 248.994,56.343 C 246.204,56.343 243.188,53.689 243.188,47.104 C 243.188,47.104 259.354,47.104 259.188,47.104 C 260.021,44.437 260.555,32.759 250.388,32.759 z M 251.871,44.136 L 244.111,44.136 C 244.111,38.774 248.401,34.724 251.322,36.162 C 253.982,37.397 251.871,44.136 251.871,44.136 z" style="fill:#8c8c8c"/><path id="path7" d="M 154.888,32.759 C 144.721,32.759 140.188,39.937 140.188,47.27 C 140.188,54.603 144.52,59.437 153.354,59.437 C 157.504,59.437 159.854,55.603 159.854,55.603 C 159.854,55.603 159.988,54.554 159.204,54.991 C 158.42,55.428 156.284,56.343 153.494,56.343 C 150.704,56.343 147.688,53.689 147.688,47.104 C 147.688,47.104 163.854,47.104 163.688,47.104 C 164.521,44.437 165.055,32.759 154.888,32.759 z M 156.371,44.136 L 148.611,44.136 C 148.611,38.774 152.232,35.3 155.153,36.739 C 157.813,37.973 156.371,44.136 156.371,44.136 z" style="fill:#8c8c8c"/><path id="path9" d="M 268.725,59.088 L 260.527,59.088 C 260.527,59.088 265.313,41.896 265.73,33.467 C 265.658,33.539 272.84,33.467 272.84,33.467 C 272.84,33.467 272.223,35.367 271.955,37.026 C 273.986,34.777 274.674,32.754 280.187,32.754 C 280.259,32.754 280.187,39.863 280.187,39.863 C 280.187,39.863 275.037,38.588 273.187,40.437 C 271.337,42.286 269.354,43.77 268.725,59.088 z" style="fill:#8c8c8c"/><path id="path11" d="M 127.225,59.088 L 119.027,59.088 C 119.027,59.088 123.813,41.896 124.23,33.467 C 124.158,33.539 131.34,33.467 131.34,33.467 C 131.34,33.467 130.723,35.367 130.455,37.026 C 132.486,34.777 133.174,32.754 138.687,32.754 C 138.759,32.754 138.687,39.863 138.687,39.863 C 138.687,39.863 133.537,38.588 131.687,40.437 C 129.837,42.286 127.854,43.77 127.225,59.088 z" style="fill:#8c8c8c"/><path id="path13" d="M 117.227,24.633 L 110.522,26.958 L 108.981,33.202 L 104.708,33.202 L 104.708,37.307 L 108.082,37.307 C 108.082,37.307 104.484,50.182 105.158,54.119 C 105.833,58.392 109.994,59.291 112.468,59.179 C 114.942,59.067 115.617,57.268 115.504,56.593 C 115.391,55.918 112.017,57.237 111.68,54.2 C 111.455,52.401 114.492,37.307 114.492,37.307 L 119.777,37.307 L 119.777,33.202 L 115.616,33.202 L 117.227,24.633 z" style="fill:#8c8c8c"/><path id="path15" d="M 187.104,58.691 C 188.098,57.87 187.434,56.228 186.574,56.03 C 185.604,54.019 188.597,42.267 188.597,39.05 C 188.597,35.833 183.2,29.379 172.067,35.451 C 170.988,36.137 171.385,37.259 171.651,37.634 C 171.917,38.009 172.417,38.259 172.651,38.009 C 173.698,36.868 178.253,35.676 180.388,37.925 C 181.85,39.275 181.784,41.883 180.771,42.895 C 179.535,43.007 167.344,42.649 165.882,50.408 C 163.36,64.185 178.802,56.93 179.601,56.368 C 180.4,55.806 180.307,57.994 181.604,58.916 C 185.125,59.223 186.41,59.264 187.104,58.691 z M 179.396,52.935 C 178.146,56.227 173.505,55.724 173.23,53.394 C 172.23,45.602 180.271,46.185 180.271,46.185 C 180.271,46.185 180.646,49.643 179.396,52.935 z" style="fill:#8c8c8c"/><path id="path17" d="M 98.272,40.792 L 100.604,36.853 C 100.604,36.853 98.704,32.808 93.093,32.808 C 87.482,32.808 84.245,36.854 84.245,41.656 C 84.245,46.458 94.927,50.073 92.338,54.82 C 88.022,59.244 83.466,52.028 83.556,51.554 C 83.23,52.024 80.996,55.103 81.104,55.103 C 81.644,56.182 83.604,59.603 89.856,59.675 C 95.035,59.735 98.165,55.899 98.273,51.152 C 98.381,44.786 89.101,41.548 88.993,38.635 C 88.885,35.722 95.144,32.375 98.272,40.792 z" style="fill:#8c8c8c"/><path id="path19" d="M 86.042,31.416 C 85.042,30.478 84.292,31.729 82.042,32.666 C 79.792,33.603 79.042,33.479 76.792,33.166 C 73.104,32.353 66.622,32.596 64.917,33.416 C 53.531,37.988 59.636,46.447 61.495,48.135 C 61.479,48.135 58.722,49.588 58.319,51.87 C 57.801,54.803 59.15,56.39 59.192,56.431 C 55.472,56.624 53.08,60.365 53.656,63.428 C 54.276,66.727 58.209,69.359 63.84,69.381 C 75.744,69.64 76.361,62.028 76.361,62.028 C 77.99,52.77 70.139,52.343 64.544,52.778 C 62.519,50.969 64.099,49.282 64.013,49.282 C 82.917,49.728 78.158,37.12 78.158,37.12 C 81.35,36.343 87.604,32.916 86.042,31.416 z M 60.722,57.939 C 68.127,59.275 71.107,57.577 71.614,61.352 C 71.833,65.036 68.706,66.089 65.069,66.315 C 61.432,66.541 58.782,64.703 58.636,62.34 C 58.491,59.977 60.555,60.221 60.722,57.939 z M 72.161,41.835 C 71.477,44.863 69.379,46.971 67.474,46.541 C 65.569,46.11 64.58,43.307 65.263,40.278 C 65.947,37.249 68.045,35.141 69.95,35.571 C 71.855,36.002 72.845,38.806 72.161,41.835 z"/><path id="path21" d="M 47.141,5.199 C 41.732,5.199 33.818,0.792 26.105,0.792 C 18.392,0.792 13.785,5.199 12.983,5.8 C 12.182,6.401 11.68,8.704 14.085,8.003 C 16.49,7.302 18.492,7.302 22.299,7.302 C 26.106,7.302 35.221,12.511 44.437,12.511 C 53.653,12.511 61.365,5.4 63.068,2.895 C 64.771,0.39 63.168,-0.411 61.866,0.191 C 60.563,0.792 52.15,5.199 47.141,5.199 z" style="fill:#ff3131"/><path id="path23" d="M 70.639,18.921 C 64.956,18.921 56.642,14.515 48.539,14.515 C 40.436,14.515 35.595,18.921 34.753,19.523 C 33.911,20.125 33.384,22.427 35.91,21.726 C 38.436,21.025 40.54,21.025 44.539,21.025 C 48.538,21.025 58.115,26.234 67.796,26.234 C 77.477,26.234 85.581,19.123 87.37,16.619 C 89.159,14.114 87.475,13.312 86.107,13.914 C 84.739,14.516 75.901,18.921 70.639,18.921 z" style="fill:#319831"/><path id="path25" d="M 37.936,34.063 C 32.043,34.063 23.421,29.302 15.018,29.302 C 6.615,29.302 1.594,34.063 0.721,34.712 C -0.152,35.361 -0.698,37.849 1.921,37.091 C 4.541,36.334 6.723,36.334 10.87,36.334 C 15.017,36.334 24.949,41.96 34.99,41.96 C 45.03,41.96 53.433,34.279 55.289,31.574 C 57.145,28.869 55.398,28.004 53.979,28.653 C 52.56,29.302 43.393,34.063 37.936,34.063 z" style="fill:#3232cc"/></g>
</svg>