<?xml version="1.0" encoding="UTF-8"?>
<svg width="622" height="87" inkscape:version="1.0.2 (e86c870879, 2021-01-15)" sodipodi:docname="Tcpdump&amp;libpcap.svg" version="1.1" viewBox="0 0 622 87" xmlns="http://www.w3.org/2000/svg" xmlns:cc="http://creativecommons.org/ns#" xmlns:dc="http://purl.org/dc/elements/1.1/" xmlns:inkscape="http://www.inkscape.org/namespaces/inkscape" xmlns:rdf="http://www.w3.org/1999/02/22-rdf-syntax-ns#" xmlns:sodipodi="http://sodipodi.sourceforge.net/DTD/sodipodi-0.dtd">
 <sodipodi:namedview bordercolor="#666666" borderopacity="1" gridtolerance="10" guidetolerance="10" inkscape:current-layer="g891" inkscape:cx="622.23932" inkscape:cy="98.394966" inkscape:pageopacity="0" inkscape:pageshadow="2" inkscape:window-height="1014" inkscape:window-maximized="1" inkscape:window-width="1920" inkscape:window-x="0" inkscape:window-y="36" inkscape:zoom="1.022508" objecttolerance="10" pagecolor="#ffffff" showgrid="false"/>
 <metadata>
  <rdf:RDF>
   <cc:Work rdf:about="">
    <dc:format>image/svg+xml</dc:format>
    <dc:type rdf:resource="http://purl.org/dc/dcmitype/StillImage"/>
    <dc:title/>
   </cc:Work>
  </rdf:RDF>
 </metadata>
 <g transform="translate(2.54 .634)">
  <g transform="matrix(1.03 0 0 .968 -8.24 171)">
   <path d="m240-89.5c-.302-.786-5.56-2.39-12.9-3.93-10.8-2.28-13.9-2.53-24.6-2.03l-12.2.568v-3.03c0-1.67-.626-3.27-1.4-3.57-.769-.295-9.21-1.72-18.8-3.18-19.9-3.04-22.8-3.59-21.2-4.16.612-.228 8.49.762 17.5 2.2 9.01 1.44 18.1 2.86 20.1 3.17l3.75.555v-60.4l12.2.332c10.7.291 12.9.657 17.9 2.97 7.83 3.67 13.3 8.99 17 16.5 2.72 5.52 3.14 7.45 3.14 14.3 0 6.34-.502 8.98-2.56 13.5-2.98 6.51-9.7 13.4-15.6 16.1-4.3 1.94-5.37 3.55-2.37 3.56.962.0011 6.22 1.08 11.7 2.41 5.8 1.4 10.8 2.1 12 1.68 2.86-1 4.9-.375 6.35 1.94 1.17 1.87.951 1.97-4.17 1.97-3.57 0-5.57-.451-5.91-1.33zm-26.8-18.2c9.54-3.37 14.9-10.1 15.8-19.7.695-7.67-1.53-13.5-7.13-18.6-4.66-4.3-8.67-5.94-15.6-6.41l-4.5-.302-.537 46.5h3.89c2.14 0 5.78-.666 8.08-1.48zm-184 17.4c-9.91-1.64-13.8-7.23-13.4-19.4.167-5.9-.214-8.84-1.45-11.2-2.07-3.95-2.09-6.96-.0944-15.3.856-3.58 2.14-9.82 2.86-13.9 1.22-6.89 1.19-7.41-.502-7.85-2.13-.558-2.56-1.49-3.48-7.65l-.694-4.63h5.22c4.08 0 5.86-.535 8.12-2.44 2.8-2.36 3.04-2.39 6.64-.896 2.06.852 4.19 1.91 4.74 2.36s9.89 1.14 20.8 1.54 19.8.867 19.8 1.04-.487 2.58-1.08 5.36l-1.08 5.05h-9.92c-10.4 0-11.8.718-7.33 3.65 3.45 2.26 2.72 5.93-2.6 13l-3.99 5.29v41.1h-14v-29.9l-5.95 3.55c-3.27 1.95-7.76 3.79-9.98 4.09-3.65.49-4.09.86-4.68 4-.946 5.04.287 13.4 2.41 16.3 4.2 5.74 15.2 7.65 28.4 4.92 5.91-1.22 27.7-7.15 35-9.51l4.7-1.53-4.29-5.83c-5.27-7.16-6.96-12.9-6.44-21.7.521-8.84 3.61-15 11-21.8 6.94-6.42 14.3-9.46 24.8-10.2 8.84-.622 19.4 1.19 18.6 3.2-.276.72-1.06 3.18-1.74 5.46-.957 3.19-1.6 3.98-2.82 3.44-2.89-1.28-15.6-1.59-19.7-.483-5.44 1.46-11.7 6.15-15.1 11.3-2.38 3.59-2.77 5.2-2.77 11.3 0 6.13.393 7.74 2.77 11.3 3.38 5.12 9.66 9.81 15.1 11.3 2.23.6 7.78.936 12.3.747l8.29-.344-.00015 4.69c-7e-5 2.58-.511 5.01-1.14 5.39-2.28 1.41-15 1.66-20.9.402-3.33-.706-8.56-2.8-11.6-4.64-3.62-2.18-5.97-3.04-6.69-2.44-1.29 1.07-21.2 6.94-33.6 9.9-10.6 2.53-18.1 3.18-24.4 2.13zm1.94-34.1 6-3.38.553-30.5-17.5.579-1.13 7c-4.02 24.9-4.12 26.6-1.71 29 2.28 2.28 6.39 1.47 13.8-2.73zm24.5-20c3.08-4.25 3.99-8.84 1.76-8.86-.688-.008-2.26-.285-3.5-.617-2.18-.584-2.25-.379-2.25 6.51 0 3.91.222 7.12.494 7.12s1.85-1.87 3.5-4.15zm-24.7-27c-1.9-1.9-2.38-2-3.88-.75-1.57 1.29-1.42 1.47 1.7 2.04 1.88.34 3.62.678 3.88.75.26.0724-.503-.844-1.7-2.04zm402 75.1c-3.71-4.41-3.43-8.39.857-12.4 3.11-2.93 3.31-3.43 2.03-5.12-5.02-6.63 3.69-15.2 9.52-9.37 2.72 2.72 2.51 6.58-.5 9.59-3.02 3.02-3.01 2.8-.312 6.45 2.47 3.34 3.81 3.78 3.81 1.25 0-1.58.13-1.58 1.61-.106 1.19 1.19 1.35 2.07.603 3.41-.715 1.28-.615 2.39.349 3.87 1.74 2.65.396 5.41-1.51 3.11-1.14-1.37-1.58-1.32-4.07.453-4.3 3.06-9.27 2.62-12.4-1.09zm10.9-1.87c1.69-1.87 1.63-2.12-1.49-6.46-2.76-3.84-3.53-4.36-5.15-3.5-3.59 1.92-4.33 7.04-1.53 10.6 1.47 1.9 6.19 1.5 8.17-.693zm.536-20.4c-.0312-2.32-1.78-3.8-4.1-3.48-3.05.432-3.73 4.25-1.24 7 1.8 1.99 1.81 1.99 3.58-.193.975-1.2 1.77-2.7 1.76-3.33zm18.2 9.11.275-16.2 6.5-.627v29.1h6.5c5.83 0 6.5.205 6.5 2 0 1.87-.667 2-10 2h-10zm22.8 6.25c0-9.33.133-10 2-10s2 .667 2 10c0 9.33-.133 10-2 10s-2-.667-2-10zm6.5-3v-13h4.1c11.3 0 18.7 7.16 11.9 11.6l-2.53 1.66 2.09 1.46c5.56 3.9-1.25 11.3-10.4 11.3h-5.1zm9.95 8.84c3.14-1.43 3.28-4.21.325-6.28-4.15-2.9-5.78-2.07-5.78 2.94 0 4.9.867 5.43 5.45 3.34zm-.018-10.8c4.6-1.75 3.04-6.04-2.68-7.41-2.69-.643-2.75-.56-2.75 3.86 0 4.87.716 5.34 5.43 3.54zm10.6 1.87v-13.1l7.9.359c6.15.279 8.39.801 10.1 2.36 7.04 6.34 2.56 14.5-7.96 14.5h-4.05v4.5c0 4.33-.111 4.5-3 4.5h-3zm14.8-1.09c1.84-1.84 1.43-5.61-.734-6.76-1.06-.569-3.31-1.04-5-1.04-2.97 0-3.07.145-3.07 4.5v4.5h3.8c2.09 0 4.34-.54 5-1.2zm16.7 12.8c-1.68-.743-3.85-2.57-4.83-4.07-5.88-8.97.101-20.5 10.6-20.5 3.08-.003 3.75.351 3.75 2 0 1.66-.667 2-3.91 2-3.14 0-4.42.607-6.5 3.08-3.54 4.21-3.4 8.27.44 12.1 2.48 2.48 3.66 2.96 6.54 2.62 3.08-.36 3.48-.157 3.22 1.64-.366 2.56-4.92 3.13-9.34 1.17zm12.6.632c.0356-.412 2.42-6.15 5.3-12.7 5.4-12.4 7.74-14.9 9.54-10.3.5 1.28 2.95 7.16 5.44 13.1l4.53 10.8h-2.86c-2.55 0-3.04-.553-4.54-5.05-1.64-4.94-1.76-5.05-5.29-4.75-3.35.283-3.71.644-5.08 5.05-1.3 4.2-1.8 4.75-4.29 4.75-1.55 0-2.8-.338-2.76-.75zm13.8-15.3c-1.12-3.22-2.13-2.96-3.28.826-.579 1.92-.308 2.25 1.84 2.25 2.37 0 2.46-.172 1.44-3.08zm13.2 3.08v-13h6.85c5.49 0 7.53.457 10.2 2.29 2.9 1.95 3.4 2.87 3.4 6.21s-.501 4.26-3.4 6.21c-2.08 1.4-4.89 2.29-7.25 2.29h-3.85v4.5c0 4.33-.111 4.5-3 4.5h-3zm14.4-1.57c3.32-3.32.555-7.43-5-7.43-3.4 0-3.43.0417-3.43 4.5 0 4.46.0317 4.5 3.43 4.5 1.89 0 4.14-.707 5-1.57zm-464-22v-34.6l16.2.353c15.4.334 16.6.501 21.9 3.13 17 8.35 19.5 26.4 5.1 36.8-5.93 4.26-12 5.94-21.4 5.94h-7.84v23h-14zm32-1.41c7.42-3.78 9.05-11.1 3.68-16.5-3.77-3.77-8.91-5.49-16.5-5.5l-5.25-.006v24h7.04c5.08 0 8.14-.56 11-2.01zm96.8 34.7c-10.1-2.86-17.1-9.83-18.8-18.6-.553-2.91-1-14.9-1-26.6v-21.3l3.25.596c1.79.328 4.82.898 6.75 1.27l3.5.671.781 23c.865 25.4 1.09 26.3 7.79 29.7 6.46 3.29 14.9 1.72 19.9-3.7 2.48-2.69 2.5-2.87 3-25.8l.5-23.1 3.5-.672c1.92-.369 4.96-.94 6.75-1.27l3.25-.596v21.9c0 25.4-.743 30.2-5.58 35.9-7.03 8.22-21.9 12.1-33.6 8.84zm41.2-33.4v-34.7l5.74 5.47c3.16 3.01 11.2 10.8 17.8 17.2s12.5 11.8 13 11.8c.495 0 8.44-7.53 17.7-16.7l16.8-16.7v68.5h-12l-.545-35.9-10.8 10.1c-9.57 8.93-11 9.91-12.5 8.72-.951-.734-5.56-4.72-10.2-8.86-4.68-4.14-9.56-8.42-10.8-9.52l-2.35-2 .699 37.5-12.5-.0011zm76 .216v-34.5h13.9c11.2 0 15.2.396 20.6 2.08 12.3 3.81 19.9 14.6 17.6 25-1.16 5.16-2.56 7.29-7.73 11.8-5.76 5.07-12.2 7.1-22.6 7.1h-7.82v23h-14zm32.1-1.56c2.72-1.39 4.52-3.21 5.52-5.6 3.83-9.17-4.21-16.3-18.4-16.3l-5.25-.006v24h7.04c5.13 0 8.13-.558 11.1-2.06zm-305 23c1.65-.583 8.18-1.22 14.5-1.41 11.3-.343 11.4-.337 2.5.406-4.95.415-11.5 1.05-14.5 1.41-4.58.545-5 .477-2.5-.406zm378-8.93c0-1.33.667-2 2-2s2 .667 2 2-.667 2-2 2-2-.667-2-2z" fill="#a90101"/>
   <path d="m240-89.5c-.287-.747-1.8-1.63-3.36-1.97-37-7.93-77.9-15.6-83.3-15.7-1.38-.0101-3.18-.494-4-1.07-1.09-.77-.147-.885 3.5-.425 11.4 1.43 42.8 6.79 53 9.04 17 3.73 32.9 7.41 34.3 7.94.692.261 2.27.119 3.5-.316 3.02-1.07 5.05-.484 6.53 1.88 1.17 1.87.951 1.97-4.17 1.97-3.63 0-5.57-.446-5.92-1.36zm-211-.715c-9.9-1.63-13.8-7.22-13.5-19.4.154-6.08-.243-8.91-1.65-11.8-1.64-3.34-1.72-4.5-.707-10 5.4-29.3 7.36-36 11.7-40.4l3.29-3.29 4.24 1.66c4.53 1.78 5.98 3.72 4.16 5.54-.841.841-2.02.271-4.59-2.22-4.21-4.08-5.14-3.57-8.97 4.97-2.52 5.61-3.75 11.1-6.46 28.8-1.93 12.6-.995 16.2 4.21 16.2 4.97-.005 23.3-11.7 30.8-19.7 8.05-8.55 9.08-12.7 3.4-13.8-2.14-.401-3.5-1.24-3.5-2.14 0-2.77 2.67-2.53 5.95.532 2.7 2.53 3.15 3.52 2.58 5.8-2.41 9.69-30.1 32.2-39.6 32.2-2.48 0-2.94.466-3.53 3.59-.968 5.16.241 13.5 2.38 16.4 4.39 6 15.3 7.66 29.9 4.56 6.27-1.33 32.1-8.45 36.8-10.1 1.4-.503 1.7-.396 1 .356-1.08 1.16-19.7 6.73-33.5 10-10.6 2.53-18.1 3.18-24.4 2.13zm77.9-18c1.65-.583 8.18-1.22 14.5-1.41 11.3-.343 11.4-.337 2.5.406-4.95.415-11.5 1.05-14.5 1.41-4.58.545-5 .477-2.5-.406z" fill="#0a0808"/>
  </g>
 </g>
</svg>