<?xml version="1.0" encoding="utf-8"?>
<!-- Generator: Adobe Illustrator 16.0.0, SVG Export Plug-In . SVG Version: 6.00 Build 0)  -->
<!DOCTYPE svg PUBLIC "-//W3C//DTD SVG 1.1//EN" "http://www.w3.org/Graphics/SVG/1.1/DTD/svg11.dtd">
<svg version="1.1" id="design" xmlns="http://www.w3.org/2000/svg" xmlns:xlink="http://www.w3.org/1999/xlink" x="0px" y="0px"
	 width="612px" height="792px" viewBox="0 0 612 792" enable-background="new 0 0 612 792" xml:space="preserve">
<title>careers-disciplines-icon-</title>
<path d="M158.1,371.846c-5.141-5.142-2.57-16.034,5.753-24.48l88.128-88.128c8.16-8.159,19.177-10.894,24.48-5.752l0,0
	c5.141,5.141,2.529,15.993-5.753,24.479l-88.128,88.128C174.42,374.254,163.404,376.946,158.1,371.846L158.1,371.846L158.1,371.846z
	"/>
<line fill="none" stroke="#000000" stroke-width="10" stroke-miterlimit="10" x1="163.731" y1="287.88" x2="192.74" y2="258.871"/>
<line fill="none" stroke="#000000" stroke-width="10" stroke-miterlimit="10" x1="147.696" y1="273.763" x2="176.745" y2="244.755"/>
<line fill="none" stroke="#000000" stroke-width="10" stroke-miterlimit="10" x1="179.724" y1="303.874" x2="208.733" y2="274.865"/>
<circle cx="130.968" cy="229.904" r="28.723"/>
<path fill="none" stroke="#000000" stroke-width="10" stroke-miterlimit="10" d="M326.4,451.896l35.904,33.864
	c0,0,84.293,54.55,128.806,80.457c-27.459-40.8-82.865-118.646-82.865-118.646l-38.146-38.107"/>
<line fill="none" stroke="#000000" stroke-width="10" stroke-miterlimit="10" x1="349.125" y1="429.864" x2="474.177" y2="549.123"/>
<line fill="none" stroke="#000000" stroke-width="10" stroke-miterlimit="10" x1="209.589" y1="338.921" x2="254.714" y2="384.046"/>
<line fill="none" stroke="#000000" stroke-width="10" stroke-miterlimit="10" x1="228.154" y1="317.95" x2="273.32" y2="363.074"/>
<line fill="none" stroke="#000000" stroke-width="10" stroke-miterlimit="10" x1="246.065" y1="294.123" x2="295.27" y2="343.327"/>
<polyline points="205.618,474.775 431.153,230.407 520.457,185.74 475.333,275.774 225.465,494.802 "/>
<path d="M201.638,488.537L201.638,488.537c3.792,2.276,6.839,5.671,8.749,9.75c4.932,12.602,2.14,27.023-7.103,36.699
	c-7.742,8.377-29.575,22.934-81.967,9.11c8.152-7.011,14.671-15.828,19.072-25.796c6.392-14.824,18.485-26.219,33.362-31.435
	C182.868,483.393,192.972,483.999,201.638,488.537 M209.736,474.218c-24.574-14.823-65.625-2.761-83.694,36.847
	S68.005,542.08,68.005,542.08c144.342,64.348,173.247-16.492,156.799-51.09c-3.304-7.027-8.563-12.877-15.107-16.795l0,0
	L209.736,474.218z"/>
</svg>
