<?xml version="1.0" encoding="utf-8"?>
<!-- Generator: Adobe Illustrator 16.0.0, SVG Export Plug-In . SVG Version: 6.00 Build 0)  -->
<!DOCTYPE svg PUBLIC "-//W3C//DTD SVG 1.1//EN" "http://www.w3.org/Graphics/SVG/1.1/DTD/svg11.dtd">
<svg version="1.1" id="design" xmlns="http://www.w3.org/2000/svg" xmlns:xlink="http://www.w3.org/1999/xlink" x="0px" y="0px"
	 width="612px" height="792px" viewBox="0 0 612 792" enable-background="new 0 0 612 792" xml:space="preserve">
<title>careers-disciplines-icon-</title>
<path d="M158.1,371.846c-5.141-5.143-2.57-16.034,5.753-24.48l88.128-88.128c8.16-8.159,19.178-10.894,24.48-5.752l0,0
	c5.141,5.141,2.529,15.993-5.753,24.479l-88.128,88.128C174.42,374.254,163.404,376.946,158.1,371.846L158.1,371.846L158.1,371.846z
	"/>
<line fill="none" stroke="#000000" stroke-width="10" stroke-miterlimit="10" x1="163.731" y1="287.88" x2="192.74" y2="258.871"/>
<line fill="none" stroke="#000000" stroke-width="10" stroke-miterlimit="10" x1="147.696" y1="273.763" x2="176.745" y2="244.755"/>
<line fill="none" stroke="#000000" stroke-width="10" stroke-miterlimit="10" x1="179.724" y1="303.874" x2="208.733" y2="274.865"/>
<circle cx="130.968" cy="229.904" r="28.723"/>
<path fill="none" stroke="#000000" stroke-width="10" stroke-miterlimit="10" d="M326.4,451.896l35.904,33.864
	c0,0,84.293,54.55,128.806,80.457c-27.459-40.8-82.865-118.646-82.865-118.646l-38.146-38.107"/>
<line fill="none" stroke="#000000" stroke-width="10" stroke-miterlimit="10" x1="349.125" y1="429.864" x2="474.177" y2="549.123"/>
<line fill="none" stroke="#000000" stroke-width="10" stroke-miterlimit="10" x1="209.589" y1="338.921" x2="254.714" y2="384.046"/>
<line fill="none" stroke="#000000" stroke-width="10" stroke-miterlimit="10" x1="228.154" y1="317.95" x2="273.32" y2="363.074"/>
<line fill="none" stroke="#000000" stroke-width="10" stroke-miterlimit="10" x1="246.065" y1="294.123" x2="295.27" y2="343.327"/>
<path d="M510.152,278.615c-0.923-1.089-2.202-1.632-3.832-1.632c-0.978,0-4.813,1.932-11.503,5.794
	c-6.688,3.86-14.063,8.265-22.109,13.215c-8.052,4.95-12.348,7.588-12.889,7.915l-31.494-17.458v-36.549l47.807-27.577
	c1.739-1.196,2.611-2.719,2.611-4.568c0-1.849-0.872-3.372-2.611-4.567c-4.789-3.265-10.636-5.794-17.539-7.589
	c-6.908-1.794-13.518-2.692-19.826-2.692c-20.123,0-37.335,7.154-51.638,21.457c-14.308,14.302-21.457,31.518-21.457,51.64
	c0,20.124,7.153,37.338,21.457,51.642c14.303,14.302,31.515,21.456,51.638,21.456c15.34,0,29.399-4.545,42.182-13.626
	c12.776-9.083,21.728-20.912,26.84-35.488c2.499-7.287,3.75-13.053,3.75-17.293C511.541,281.065,511.074,279.704,510.152,278.615z"
	/>
<path d="M373.168,298.221L198.835,472.553c-19.479-6.994-42.102-2.701-57.706,12.904c-21.548,21.549-21.548,56.487,0,78.034
	c21.545,21.546,56.483,21.548,78.033,0c15.604-15.605,19.9-38.231,12.904-57.709L406.399,331.45 M201.862,546.19l-29.667,7.95
	l-21.715-21.716l7.95-29.666l29.665-7.951l21.717,21.717L201.862,546.19z"/>
</svg>
